<svg data-svgs-path="theme_neutral/search_results.svg" xmlns="http://www.w3.org/2000/svg" fill-rule="evenodd" stroke-linecap="round" stroke-linejoin="round" stroke-miterlimit="1.5" clip-rule="evenodd" viewBox="0 0 220 200"><g transform="translate(-2800 -492)"><g id="SearchResults"><path fill="none" d="M1800-100h300v300h-300z" transform="matrix(.73333 0 0 .66667 1480 558.667)"></path><path fill="#f9e4e2" d="M17006.4 888.464s-1.7-1.673-1.8-7.307c-.1-10.409 11.7-22.681 11.7-22.681v16.351l-9.9 13.637z" transform="matrix(.84652 0 0 1.08555 -11505.343 -346.835)"></path><path fill="none" stroke="#f9e4e2" stroke-width="2.17" d="M17043.5 874.827h-17.7" transform="matrix(.72171 0 0 1.08555 -9383.068 -378.45)"></path><path fill="none" stroke="#f9e4e2" stroke-width="2.12" d="M17043.5 874.827h-17.7" transform="matrix(.77326 0 0 1.08555 -10261.64 -369.477)"></path><path fill="none" stroke="#f9e4e2" stroke-width="1.89" d="M17043.5 874.827h-17.7" transform="matrix(1.03102 0 0 1.08555 -14654.75 -360.938)"></path><path fill="none" stroke="#f9e4e2" stroke-width="1.89" d="M17043.5 874.827h-17.7" transform="matrix(1.03102 0 0 1.08555 -14654.75 -353.647)"></path><path fill="none" stroke="#f9e4e2" stroke-width="2.24" d="M988.052 2713.12c1.79-2.01 3.085-4.27 3.668-6.92.426-1.94.379-5.36.379-5.36l7.727.28" transform="matrix(.93978 0 0 .84316 2027.577 -1725.008)"></path><path fill="none" stroke="#f9e4e2" stroke-width="2" d="M988.5 2701c3.398-4.46 11.5-2.5 11.5-2.5" transform="translate(1967.187 -2150.528)"></path><path fill="#f9e4e2" d="M16998.8 621.293h11v23.29c0 3.516-1.1 6.938-3.2 9.75-2 2.67-4.5 6.055-6.4 8.591-1.6 2.058-4.5 2.557-6.6 1.14v-.002c-1.5-.952-2.5-2.445-2.8-4.142a6.5 6.5 0 0 1 1.1-4.87c1.6-2.412 3.5-5.158 4.9-7.17 1.3-1.875 2-4.105 2-6.389v-20.198z" transform="matrix(0 -.84251 .84251 0 2325.398 14964.18)"></path><path fill="#f9e4e2" d="M16998.8 628.511h11v16.072c0 3.516-1.1 6.938-3.2 9.75-2 2.67-4.5 6.055-6.4 8.591-1.6 2.058-4.5 2.557-6.6 1.14v-.002c-1.5-.952-2.5-2.445-2.8-4.142a6.5 6.5 0 0 1 1.1-4.87c1.6-2.412 3.5-5.158 4.9-7.17 1.3-1.875 2-4.105 2-6.389v-12.98z" transform="scale(.84251) rotate(45 10015.615 -15658.572)"></path><path fill="#f9e4e2" d="M16835 710c1.9-15.511 9.2-29.166 18.4-42.056 3.2-4.543 4.6-10.158 3.7-15.676-.2-1.441-.4-3.007-.6-4.663-3.4-23.244 8.6-46.018 29.7-56.322v-.001c7.3-3.569 13.4-9.208 17.6-16.215 9.2-15.65 23.3-19.595 39.7-25.067l.2 23.8c2.9 2.824 4.6 6.772 4.5 10.88 0 4.107-1.8 7.994-4.9 10.709-3 2.659-5.4 4.735-5.4 4.735s-1.3-2.665-2.9-6.041c-.5-1.075-1.7-1.621-2.8-1.288-1.2.334-1.9 1.447-1.7 2.627.7 5.454 1.3 10.291 1.3 10.291 1.9 4.294 4.3 8.39 9.2 11.359v11.907s-10.4-1.323-16.8 3.292c-.9.636-1.9 1.223-2.8 1.759-13.9 7.969-21.1 24.653-27.7 41.964-4.4 11.287-2.9 24.006 3.9 34.005V710" transform="translate(-11355.543 28.735) scale(.84251)"></path><path fill="none" stroke="#f9e4e2" stroke-width="2.05" d="M17043.5 896.806v-21.132" transform="matrix(.84652 0 0 1.08555 -11505.343 -346.835)"></path><path fill="none" stroke="#eca19a" stroke-width="2.48" d="M16637 1390h110" transform="matrix(.76592 0 0 .84251 -9838.78 -544.173)"></path><g transform="matrix(-.98998 0 0 .98998 19802.626 -67.899)"><path fill="#da4c3f" d="M16998.8 621.293c3.6-.344 7.1-.71 11-.702v24.799c0 2.992-.9 5.904-2.7 8.298-2 2.612-4.6 6.116-6.6 8.813-1.8 2.295-5 2.853-7.4 1.272v-.001a5.941 5.941 0 0 1-2.5-3.81c-.3-1.56 0-3.175.9-4.479 1.9-2.684 4.1-5.88 5.6-8.032a9.592 9.592 0 0 0 1.7-5.437v-20.721z"></path><clipPath id="_clip1"><path d="M16998.8 621.293c3.6-.344 7.1-.71 11-.702v24.799c0 2.992-.9 5.904-2.7 8.298-2 2.612-4.6 6.116-6.6 8.813-1.8 2.295-5 2.853-7.4 1.272v-.001a5.941 5.941 0 0 1-2.5-3.81c-.3-1.56 0-3.175.9-4.479 1.9-2.684 4.1-5.88 5.6-8.032a9.592 9.592 0 0 0 1.7-5.437v-20.721z"></path></clipPath><g clip-path="url(#_clip1)"><path fill="none" stroke="#fff" stroke-width="1.519" d="M16999.793 662.276c-1.948-1.607-3.722-3.485-5.425-5.338-.623-.693-1.238-1.44-1.887-2.15"></path><path fill="none" stroke="#fff" stroke-width="2.019" d="M17012.057 626.414l-13.264.264"></path></g></g><g transform="matrix(0 .84251 .84251 0 2310.778 -13679.533)"><path fill="#eca19a" d="M16998.8 621.293h11v23.29c0 3.516-1.1 6.938-3.2 9.75-2 2.67-4.5 6.055-6.4 8.591-1.6 2.058-4.5 2.557-6.6 1.14v-.002c-1.5-.952-2.5-2.445-2.8-4.142a6.5 6.5 0 0 1 1.1-4.87c1.6-2.412 3.5-5.158 4.9-7.17 1.3-1.875 2-4.105 2-6.389v-20.198z"></path><clipPath id="_clip2"><path d="M16998.8 621.293h11v23.29c0 3.516-1.1 6.938-3.2 9.75-2 2.67-4.5 6.055-6.4 8.591-1.6 2.058-4.5 2.557-6.6 1.14v-.002c-1.5-.952-2.5-2.445-2.8-4.142a6.5 6.5 0 0 1 1.1-4.87c1.6-2.412 3.5-5.158 4.9-7.17 1.3-1.875 2-4.105 2-6.389v-20.198z"></path></clipPath><g clip-path="url(#_clip2)"><path fill="none" stroke="#fff" stroke-width="1.93" d="M17043.5 874.827h-17.7" transform="matrix(-1.16256 0 0 1.28847 36807.8 -500.69)"></path><path fill="none" stroke="#fff" stroke-width="1.93" d="M17043.5 874.827h-17.7" transform="matrix(-1.16256 0 0 1.28847 36807.8 -495.281)"></path><path fill="none" stroke="#fff" stroke-width="1.93" d="M17043.5 874.827h-17.7" transform="matrix(-1.16256 0 0 1.28847 36807.8 -489.872)"></path><path fill="none" stroke="#fff" stroke-width="1.93" d="M17043.5 874.827h-17.7" transform="matrix(-1.16256 0 0 1.28847 36807.8 -484.463)"></path><path fill="none" stroke="#fff" stroke-width="1.93" d="M17043.5 874.827h-17.7" transform="matrix(-1.13994 -.2282 -.25292 1.2634 36643.8 3430.2)"></path><path fill="none" stroke="#fff" stroke-width="1.74" d="M17043.5 874.827h-17.7" transform="matrix(-1.31395 -.58403 -.52333 1.1774 39842.1 9572.2)"></path><path fill="none" stroke="#fff" stroke-width="1.74" d="M17043.5 874.827h-17.7" transform="matrix(-1.2174 -.76517 -.68565 1.09089 38335.5 12738.2)"></path></g></g><g transform="matrix(0 .84251 -.84251 0 3492.48 -13661.633)"><path fill="#f9e4e2" d="M16998.8 621.293h11v23.29c0 3.516-1.1 6.938-3.2 9.75-2 2.67-4.5 6.055-6.4 8.591-1.6 2.058-4.5 2.557-6.6 1.14v-.002c-1.5-.952-2.5-2.445-2.8-4.142a6.5 6.5 0 0 1 1.1-4.87c1.6-2.412 3.5-5.158 4.9-7.17 1.3-1.875 2-4.105 2-6.389v-20.198z"></path><clipPath id="_clip3"><path d="M16998.8 621.293h11v23.29c0 3.516-1.1 6.938-3.2 9.75-2 2.67-4.5 6.055-6.4 8.591-1.6 2.058-4.5 2.557-6.6 1.14v-.002c-1.5-.952-2.5-2.445-2.8-4.142a6.5 6.5 0 0 1 1.1-4.87c1.6-2.412 3.5-5.158 4.9-7.17 1.3-1.875 2-4.105 2-6.389v-20.198z"></path></clipPath><g clip-path="url(#_clip3)"><path fill="none" stroke="#fff" stroke-width="1.93" d="M17043.5 874.827h-17.7" transform="matrix(-1.16256 0 0 1.28847 36807.8 -500.69)"></path><path fill="none" stroke="#fff" stroke-width="1.93" d="M17043.5 874.827h-17.7" transform="matrix(-1.16256 0 0 1.28847 36807.8 -495.281)"></path><path fill="none" stroke="#fff" stroke-width="1.93" d="M17043.5 874.827h-17.7" transform="matrix(-1.16256 0 0 1.28847 36807.8 -489.872)"></path><path fill="none" stroke="#fff" stroke-width="1.93" d="M17043.5 874.827h-17.7" transform="matrix(-1.16256 0 0 1.28847 36807.8 -484.463)"></path><path fill="none" stroke="#fff" stroke-width="1.93" d="M17043.5 874.827h-17.7" transform="matrix(-1.13994 -.2282 -.25292 1.2634 36643.8 3430.2)"></path><path fill="none" stroke="#fff" stroke-width="1.74" d="M17043.5 874.827h-17.7" transform="matrix(-1.31395 -.58403 -.52333 1.1774 39842.1 9572.2)"></path><path fill="none" stroke="#fff" stroke-width="1.74" d="M17043.5 874.827h-17.7" transform="matrix(-1.2174 -.76517 -.68565 1.09089 38335.5 12738.2)"></path></g></g><path fill="#eca19a" d="M16998.8 621.293h11v23.29c0 3.516-1.1 6.938-3.2 9.75-2 2.67-4.5 6.055-6.4 8.591-1.6 2.058-4.5 2.557-6.6 1.14v-.002c-1.5-.952-2.5-2.445-2.8-4.142a6.5 6.5 0 0 1 1.1-4.87c1.6-2.412 3.5-5.158 4.9-7.17 1.3-1.875 2-4.105 2-6.389v-20.198z" transform="matrix(0 .84251 -.84251 0 3440.7 -13644.733)"></path><path fill="#fff" d="M16967.3 738.043c2.4 0 8.2-3.456 8.2-3.456l4.4 9.225s-8.4 3.688-12.6 3.688c-4.1 0-7.5-2.119-7.5-4.728 0-2.61 3.4-4.729 7.5-4.729z" transform="matrix(.64795 -.53617 .59092 .71411 -8534.066 9238.778)"></path><path fill="#f9e4e2" d="M16998.8 621.293h11v23.29c0 3.516-1.1 6.938-3.2 9.75-2 2.67-4.5 6.055-6.4 8.591-1.6 2.058-4.5 2.557-6.6 1.14v-.002c-1.5-.952-2.5-2.445-2.8-4.142a6.5 6.5 0 0 1 1.1-4.87c1.6-2.412 3.5-5.158 4.9-7.17 1.3-1.875 2-4.105 2-6.389v-20.198z" transform="matrix(0 .84251 -.84251 0 3511.07 -13677.233)"></path><path fill="#f9e4e2" d="M16998.8 621.293h11v23.29c0 3.516-1.1 6.938-3.2 9.75-2 2.67-4.5 6.055-6.4 8.591-1.6 2.058-4.5 2.557-6.6 1.14v-.002c-1.5-.952-2.5-2.445-2.8-4.142a6.5 6.5 0 0 1 1.1-4.87c1.6-2.412 3.5-5.158 4.9-7.17 1.3-1.875 2-4.105 2-6.389v-20.198z" transform="matrix(0 .84251 -.84251 0 3385.18 -13654.133)"></path><path fill="#f9e4e2" d="M16894.8 749.999c0-2.761-1.1-4.999-2.5-4.999h-5c-1.3 0-2.5 2.238-2.5 4.999v.002c0 2.761 1.2 4.999 2.5 4.999h5c1.4 0 2.5-2.238 2.5-4.999v-.002z" transform="matrix(1.68502 0 0 .84251 -25585.674 26.635)"></path><path fill="#f9e4e2" d="M16894.8 749.999c0-2.761-1.1-4.999-2.5-4.999h-5c-1.3 0-2.5 2.238-2.5 4.999v.002c0 2.761 1.2 4.999 2.5 4.999h5c1.4 0 2.5-2.238 2.5-4.999v-.002z" transform="matrix(1.68502 0 0 .84251 -25471.774 35.796)"></path><path fill="#f9e4e2" d="M16894.8 749.999c0-2.761-1.1-4.999-2.5-4.999h-5c-1.3 0-2.5 2.238-2.5 4.999v.002c0 2.761 1.2 4.999 2.5 4.999h5c1.4 0 2.5-2.238 2.5-4.999v-.002z" transform="matrix(1.68502 0 0 .84251 -25484.374 3.46)"></path><path fill="none" stroke="#eca19a" stroke-width="1.67" d="M16697 1390h53.3" transform="translate(-17153.955 -1035.648) scale(1.19609)"></path><path fill="#e57f78" d="M16917.9 637.626c1.5-1.285 1.8-2.545 3-3.415 10.2-7.372 5.3-15.107 5.2-31.478-.1-10.492.1-17.517 6-23.737 7.3-7.618 23.2-7.435 27.4 5.363 1.5 4.893 1.7 12.886 1.7 12.886v36.98c-5.2-2.376-14.8-5.265-14.8-5.265l-6.2.031s-14.7 1.541-22.3 8.635z" transform="matrix(.8813 0 0 .84251 -12013.744 28.735)"></path><path fill="none" stroke="#f9e4e2" stroke-width="2.64" d="M17081.6 814.729c-2-18.868 6.2-29.624 22.9-26.093" transform="translate(-9990.94 -53.185) scale(.75757)"></path><g transform="matrix(.71328 -.0331 .0331 .71328 -9258.808 546.374)"><path fill="#fff" d="M17032.7 772.527s-2.7-9.444-6.9-8.527c-4.1.917-3.9 18.142 5.5 27.379 9.5 9.256 18.6-1.085 20.6-6.742 3.7-10.402 2-19.14-4-25.318-2.7 4.642-8.3 9.507-15.2 13.208z"></path><clipPath id="_clip4"><path d="M17032.7 772.527s-2.7-9.444-6.9-8.527c-4.1.917-3.9 18.142 5.5 27.379 9.5 9.256 18.6-1.085 20.6-6.742 3.7-10.402 2-19.14-4-25.318-2.7 4.642-8.3 9.507-15.2 13.208z"></path></clipPath><g clip-path="url(#_clip4)"><path fill="#fff" stroke="#f9e4e2" stroke-width="2.795" d="M17035.417 768.536c2.138-.968 4.448-.443 5.967 1.296"></path><path fill="#fff" stroke="#f9e4e2" stroke-width="2.795" d="M17044.485 779.155c.1-4.931 1.627-7.536 3.732-8.843 1.847-1.235 4.143-1.152 5.771-.447"></path></g></g><g transform="translate(-9989.34 -52.703) scale(.75757)"><path fill="#f9e4e2" d="M17024.8 866h19.4s8-8.024 10.4-19.779c0 0 3.8 21.165 16.2 28.779 12.5 7.614 21.9-4.392 21.1-21.842-.6-12.7-7.7-30.512-7.7-39.267h-5.9l-.3 48.743s-10.2-27.731-12.2-35.634c-1.9-7.903-7.3-20.603-20-20h-11c3.1 35.243-3.1 47.826-10 59z"></path><clipPath id="_clip5"><path d="M17024.8 866h19.4s8-8.024 10.4-19.779c0 0 3.8 21.165 16.2 28.779 12.5 7.614 21.9-4.392 21.1-21.842-.6-12.7-7.7-30.512-7.7-39.267h-5.9l-.3 48.743s-10.2-27.731-12.2-35.634c-1.9-7.903-7.3-20.603-20-20h-11c3.1 35.243-3.1 47.826-10 59z"></path></clipPath><g clip-path="url(#_clip5)"><path fill="none" stroke="#eca19a" stroke-width="1.95" d="M17043.5 874.827h-17.7" transform="matrix(1.26779 0 0 1.43293 -4556.68 -397.248)"></path><path fill="none" stroke="#eca19a" stroke-width="2.01" d="M17042.9 874.827h-17.1" transform="matrix(1.18769 0 0 1.43293 -3188.23 -406.872)"></path><path fill="none" stroke="#eca19a" stroke-width="1.94" d="M17043.5 874.827h-17.7" transform="matrix(1.28085 0 0 1.43293 -4772.91 -418.143)"></path><path fill="none" stroke="#eca19a" stroke-width="1.93" d="M17043.5 874.827h-17.7" transform="matrix(1.2929 0 0 1.43293 -4976.95 -429.988)"></path></g></g><path fill="none" stroke="#eca19a" stroke-width="2.64" d="M17024.6 930s-24.6-38.34-24.5-54.025c.2-18.685 12.7-34.371 18.4-40.551" transform="translate(-9989.34 -52.703) scale(.75757)"></path><path fill="none" stroke="#da4c3f" stroke-width="2.68" d="M16930.3 738.869c3.4 10.465 1 24.969-9.3 32.145" transform="matrix(.73263 0 0 .76028 -9495.589 90.092)"></path><path fill="none" stroke="#da4c3f" stroke-width="2.65" d="M17035.7 804.632s-12.8-.036-25.8 10.321c-6.3 4.92-13 14.74-18.4 25.311-16.7 32.82-8.3 48.692-.9 59.366s23.8 30.839 23.8 30.839" transform="matrix(.75896 0 0 .7506 -10012.84 -46.219)"></path><path fill="none" stroke="#eca19a" stroke-width="2.05" d="M17043.5 874.827h-27.2" transform="matrix(.84652 0 0 1.08555 -11505.343 -345.924)"></path><path fill="none" stroke="#da4c3f" stroke-width="2.05" d="M17043.5 874.827h-17.7" transform="matrix(.84652 0 0 1.08555 -11505.343 -345.924)"></path><path fill="#fff" stroke="#eca19a" stroke-width="2.87" d="M17015 595.181c-.1.163-2.6-1.045-2.8-1.041" transform="matrix(.79788 -.03132 .03102 .56558 -10669.241 738.074)"></path><path fill="#fff" stroke="#e57f78" stroke-width="2.19" d="M17009.9 588.627s-.2 1.086-.2 1.736" transform="matrix(.91046 -.04225 .04225 .91045 -12591.345 717.604)"></path><path fill="#fff" stroke="#e57f78" stroke-width="2.39" d="M17009.8 588.424c-.1.646-.1 1.289-.1 1.939" transform="matrix(.91527 -.12958 -.02463 .9111 -12626.145 2203.464)"></path><path fill="none" stroke="#da4c3f" stroke-width="2.39" d="M17009.8 588.424c-.1.646-.1 1.289-.1 1.939" transform="matrix(-.06003 .92245 -.88688 -.21014 4465.462 -15022.134)"></path><path fill="none" stroke="#da4c3f" stroke-width="2.79" d="M17044.8 537c.2-4.044 5.8-8.655 9-5 4 4.47-6 7.521-6 16.335V551" transform="scale(.71806 .71805) rotate(9.237 9435.376 -79200.509)"></path><path fill="none" stroke="#da4c3f" stroke-width="2.79" d="M17048.1 555.207c.1.525.1 1.051.1 1.576" transform="scale(.71806 .71805) rotate(9.237 9414.296 -79202.19)"></path><path fill="none" stroke="#da4c3f" stroke-width="1.84" d="M17051.9 545.881c-.2 3.821-.7 7.69-1.3 11.47M17050.3 561.329c-.1.25-.1.498-.2.746" transform="matrix(1.01551 .38774 -.38774 1.01551 -14113.049 -6639.92)"></path><path fill="none" stroke="#f9e4e2" stroke-width="2.19" d="M17031.1 545.823c.6 4.79 1.1 9.658 1.4 14.479M17056.8 570.96c2.3-1.612 4.5-3.224 6.8-4.855M17058.3 581.403c2.6-.326 5.2-.666 7.8-1.067" transform="scale(.91144 .91143) rotate(9.237 9993.848 -84687.93)"></path><path fill="none" stroke="#da4c3f" stroke-width="2.6" d="M16993 725.525c-1.1 6.071-6.1 14.555-9.7 18.774" transform="matrix(.8595 0 0 .66574 -11701.243 181.363)"></path><path fill="none" stroke="#da4c3f" stroke-width="2.6" d="M16993 725.525c-1.1 6.071-6.1 14.555-9.7 18.774" transform="matrix(.8595 0 0 .66574 -11703.843 178.613)"></path><path fill="none" stroke="#da4c3f" stroke-width="2.38" d="M16986.9 724.747c-1.1 4.723-3.2 9.721-6.7 13.296" transform="matrix(.84102 0 0 .84102 -11387.943 48.943)"></path><path fill="#fff" stroke="#eca19a" stroke-width="2.87" d="M17014.5 588.555c0 2.319.2 4.572.5 6.626" transform="matrix(.79788 -.03132 .03102 .56558 -10669.241 738.074)"></path></g></g></svg>