<svg width="45" height="45" viewBox="0 0 48 48"><defs><linearGradient x1="100%" y1="0%" x2="0%" y2="100%" id="b"><stop stop-opacity="0" offset="0%"></stop><stop offset="100%"></stop></linearGradient><path d="M34.6 14.7L40 4H28l-3.5 7a17 17 0 0 1 10.1 3.7z" id="me_a"></path><linearGradient x1="0%" y1="0%" y2="100%" id="d"><stop stop-opacity="0" offset="0%"></stop><stop offset="100%"></stop></linearGradient><path d="M23.5 11L20 4H8l5.4 10.7A17 17 0 0 1 23.5 11z" id="c"></path></defs><g fill="none" fill-rule="evenodd"><path d="M0 0h48v48H0z"></path><g><use fill="rgba(179, 179, 179, 0.85)" xlink:href="#me_a"></use><use fill-opacity=".1" fill="url(#b)" xlink:href="#me_a"></use></g><g><use fill="rgba(179, 179, 179, 0.85)" xlink:href="#c"></use><use fill-opacity=".1" fill="url(#d)" xlink:href="#c"></use></g><path d="M24 44a16 16 0 1 1 0-32 16 16 0 0 1 0 32zm0-4a12 12 0 1 0 0-24 12 12 0 0 0 0 24z" fill="rgba(179, 179, 179, 0.85)"></path><path fill="rgba(179, 179, 179, 0.85)" d="M22 33l-5-5 1.8-1.7 3.2 3.2 7.3-7.2L31 24z"></path></g></svg>